<?xml version="1.0" standalone="no"?>
<!DOCTYPE svg PUBLIC "-//W3C//DTD SVG 20010904//EN"
 "http://www.w3.org/TR/2001/REC-SVG-20010904/DTD/svg10.dtd">
<svg version="1.0" xmlns="http://www.w3.org/2000/svg"
 width="32.000000pt" height="32.000000pt" viewBox="0 0 32.000000 32.000000"
 preserveAspectRatio="xMidYMid meet">

<g transform="translate(0.000000,32.000000) scale(0.100000,-0.100000)"
fill="#000000" stroke="none">
<path d="M97 313 c-4 -3 -7 -14 -7 -24 0 -12 -5 -16 -14 -13 -19 7 -28 -10
-20 -40 5 -22 7 -23 32 -10 20 10 28 10 34 1 4 -6 10 -8 14 -4 4 3 -2 14 -12
24 -11 10 -18 17 -16 16 3 -1 14 3 25 9 12 6 34 11 49 10 17 0 28 5 28 13 0
18 -43 27 -75 15 -33 -13 -38 -13 -30 0 7 11 2 13 -8 3z"/>
<path d="M247 244 c-3 -5 -24 -9 -46 -7 -44 2 -55 -10 -18 -21 21 -7 21 -7 2
-16 -19 -8 -19 -9 3 -9 14 -1 22 -7 22 -20 0 -10 14 -32 31 -50 25 -27 30 -39
27 -73 -3 -45 12 -59 37 -38 22 18 19 51 -5 57 -11 3 -20 12 -20 20 0 8 5 11
10 8 16 -10 12 5 -10 32 -12 16 -18 36 -16 56 4 34 -7 76 -17 61z m8 -105 c11
-17 -1 -21 -15 -4 -8 9 -8 15 -2 15 6 0 14 -5 17 -11z"/>
<path d="M67 142 c-21 -23 -21 -28 -2 -36 8 -3 14 -2 13 2 -1 4 2 15 7 25 11
26 1 30 -18 9z"/>
<path d="M100 135 c-19 -36 1 -55 23 -21 13 20 14 26 3 35 -10 8 -16 5 -26
-14z"/>
<path d="M155 100 c-27 -30 -12 -34 19 -5 16 15 22 25 13 25 -8 0 -22 -9 -32
-20z"/>
<path d="M20 85 c-7 -9 -11 -18 -8 -20 3 -3 11 1 18 10 7 9 11 18 8 20 -3 3
-11 -1 -18 -10z"/>
<path d="M21 42 c-14 -26 -15 -54 -1 -32 6 10 10 11 10 3 0 -7 5 -13 10 -13
12 0 13 30 1 49 -7 11 -11 10 -20 -7z"/>
</g>
</svg>
